<svg width="300" height="300" viewBox="0 0 300 300" fill="none" xmlns="http://www.w3.org/2000/svg">
<path d="M15.9447 82.3821C40.5263 33.5508 91.0191 0 149.485 0C189.845 0 223.563 14.7824 249.473 38.866L207.285 80.0576C196.489 69.9252 177.554 57.8004 149.485 57.8004C109.955 57.8004 76.4038 83.8775 64.2779 119.92C61.2882 129.221 59.4618 139.186 59.4618 149.485C59.4618 159.782 61.2882 169.748 64.4439 179.05C76.4038 215.092 109.955 241.168 149.485 241.168C171.741 241.168 188.683 235.023 201.306 226.219C221.237 212.268 230.206 191.506 231.867 177.72H149.485V122.245H289.834C291.993 131.547 292.99 140.516 292.99 152.806C292.99 198.316 276.712 236.684 248.477 262.761C223.728 285.681 189.845 298.969 149.485 298.969C91.0191 298.969 40.5263 265.418 15.9447 216.586C5.81336 196.323 0 173.568 0 149.485C0 125.401 5.81336 102.646 15.9447 82.3821Z" fill="black"/>
</svg>
